<svg xmlns="http://www.w3.org/2000/svg" xmlns:xlink="http://www.w3.org/1999/xlink" width="100" zoomAndPan="magnify" viewBox="0 0 75 74.999997" height="100" preserveAspectRatio="xMidYMid meet" version="1.0"><defs><clipPath id="b48e68e62e"><path d="M 0 0 L 67.5 0 L 67.5 67.5 L 0 67.5 Z M 0 0 " clip-rule="nonzero"/></clipPath></defs><g clip-path="url(#b48e68e62e)"><path fill="#7236c6" d="M 67.5 33.75 C 67.5 34.855469 67.445312 35.957031 67.335938 37.058594 C 67.230469 38.15625 67.066406 39.25 66.851562 40.335938 C 66.636719 41.417969 66.367188 42.488281 66.046875 43.546875 C 65.726562 44.605469 65.355469 45.644531 64.929688 46.664062 C 64.507812 47.6875 64.035156 48.683594 63.515625 49.660156 C 62.992188 50.632812 62.425781 51.582031 61.8125 52.5 C 61.199219 53.417969 60.539062 54.304688 59.839844 55.160156 C 59.136719 56.015625 58.394531 56.832031 57.613281 57.613281 C 56.832031 58.394531 56.015625 59.136719 55.160156 59.839844 C 54.304688 60.539062 53.417969 61.199219 52.5 61.8125 C 51.582031 62.425781 50.632812 62.992188 49.660156 63.515625 C 48.683594 64.035156 47.6875 64.507812 46.664062 64.929688 C 45.644531 65.355469 44.605469 65.726562 43.546875 66.046875 C 42.488281 66.367188 41.417969 66.636719 40.335938 66.851562 C 39.25 67.066406 38.15625 67.230469 37.058594 67.335938 C 35.957031 67.445312 34.855469 67.5 33.75 67.5 C 32.644531 67.5 31.542969 67.445312 30.441406 67.335938 C 29.34375 67.230469 28.25 67.066406 27.164062 66.851562 C 26.082031 66.636719 25.011719 66.367188 23.953125 66.046875 C 22.894531 65.726562 21.855469 65.355469 20.835938 64.929688 C 19.8125 64.507812 18.816406 64.035156 17.839844 63.515625 C 16.867188 62.992188 15.917969 62.425781 15 61.8125 C 14.082031 61.199219 13.195312 60.539062 12.339844 59.839844 C 11.484375 59.136719 10.667969 58.394531 9.886719 57.613281 C 9.105469 56.832031 8.363281 56.015625 7.660156 55.160156 C 6.960938 54.304688 6.300781 53.417969 5.6875 52.5 C 5.074219 51.582031 4.507812 50.632812 3.984375 49.660156 C 3.464844 48.683594 2.992188 47.6875 2.570312 46.664062 C 2.144531 45.644531 1.773438 44.605469 1.453125 43.546875 C 1.132812 42.488281 0.863281 41.417969 0.648438 40.335938 C 0.433594 39.25 0.269531 38.15625 0.164062 37.058594 C 0.0546875 35.957031 0 34.855469 0 33.75 C 0 32.644531 0.0546875 31.542969 0.164062 30.441406 C 0.269531 29.34375 0.433594 28.25 0.648438 27.164062 C 0.863281 26.082031 1.132812 25.011719 1.453125 23.953125 C 1.773438 22.894531 2.144531 21.855469 2.570312 20.835938 C 2.992188 19.8125 3.464844 18.816406 3.984375 17.839844 C 4.507812 16.867188 5.074219 15.917969 5.6875 15 C 6.300781 14.082031 6.960938 13.195312 7.660156 12.339844 C 8.363281 11.484375 9.105469 10.667969 9.886719 9.886719 C 10.667969 9.105469 11.484375 8.363281 12.339844 7.660156 C 13.195312 6.960938 14.082031 6.300781 15 5.6875 C 15.917969 5.074219 16.867188 4.507812 17.839844 3.984375 C 18.816406 3.464844 19.8125 2.992188 20.835938 2.570312 C 21.855469 2.144531 22.894531 1.773438 23.953125 1.453125 C 25.011719 1.132812 26.082031 0.863281 27.164062 0.648438 C 28.25 0.433594 29.34375 0.269531 30.441406 0.164062 C 31.542969 0.0546875 32.644531 0 33.75 0 C 34.855469 0 35.957031 0.0546875 37.058594 0.164062 C 38.15625 0.269531 39.25 0.433594 40.335938 0.648438 C 41.417969 0.863281 42.488281 1.132812 43.546875 1.453125 C 44.605469 1.773438 45.644531 2.144531 46.664062 2.570312 C 47.6875 2.992188 48.683594 3.464844 49.660156 3.984375 C 50.632812 4.507812 51.582031 5.074219 52.5 5.6875 C 53.417969 6.300781 54.304688 6.960938 55.160156 7.660156 C 56.015625 8.363281 56.832031 9.105469 57.613281 9.886719 C 58.394531 10.667969 59.136719 11.484375 59.839844 12.339844 C 60.539062 13.195312 61.199219 14.082031 61.8125 15 C 62.425781 15.917969 62.992188 16.867188 63.515625 17.839844 C 64.035156 18.816406 64.507812 19.8125 64.929688 20.835938 C 65.355469 21.855469 65.726562 22.894531 66.046875 23.953125 C 66.367188 25.011719 66.636719 26.082031 66.851562 27.164062 C 67.066406 28.25 67.230469 29.34375 67.335938 30.441406 C 67.445312 31.542969 67.5 32.644531 67.5 33.75 Z M 67.5 33.75 " fill-opacity="1" fill-rule="nonzero"/></g><path fill="#ffffff" d="M 41.492188 46.777344 L 36.773438 46.777344 C 37.0625 46.777344 37.25 46.5625 37.25 46.300781 L 37.25 41.179688 L 38.203125 41.179688 C 38.464844 41.179688 38.679688 40.96875 38.679688 40.703125 C 38.679688 40.441406 38.464844 40.226562 38.203125 40.226562 L 29.296875 40.226562 C 29.035156 40.226562 28.820312 40.441406 28.820312 40.703125 C 28.820312 40.96875 29.035156 41.179688 29.296875 41.179688 L 30.226562 41.179688 L 30.226562 46.300781 C 30.226562 46.5625 30.4375 46.777344 30.703125 46.777344 L 25.984375 46.777344 C 25.722656 46.777344 25.507812 46.5625 25.507812 46.300781 L 25.507812 40.226562 C 26.4375 38.988281 29.511719 37.871094 33.75 37.871094 C 37.964844 37.871094 41.0625 38.988281 41.96875 40.226562 L 41.96875 46.300781 C 41.96875 46.5625 41.753906 46.777344 41.492188 46.777344 Z M 36.296875 41.179688 L 34.226562 41.179688 L 34.226562 45.824219 L 36.296875 45.824219 Z M 33.273438 41.179688 L 31.175781 41.179688 L 31.175781 45.824219 L 33.273438 45.824219 Z M 25.507812 38.847656 L 25.507812 36.964844 C 26.4375 35.726562 29.511719 34.632812 33.75 34.632812 C 37.964844 34.632812 41.0625 35.726562 41.96875 36.964844 L 41.96875 38.847656 C 40.300781 37.679688 37.273438 36.917969 33.75 36.917969 C 30.226562 36.917969 27.175781 37.679688 25.507812 38.847656 Z M 25.507812 35.609375 L 25.507812 33.726562 C 26.4375 32.488281 29.511719 31.367188 33.75 31.367188 C 37.964844 31.367188 41.0625 32.488281 41.96875 33.726562 L 41.96875 35.609375 C 40.300781 34.441406 37.273438 33.679688 33.75 33.679688 C 30.226562 33.679688 27.175781 34.441406 25.507812 35.609375 Z M 25.507812 32.34375 L 25.507812 30.464844 C 26.4375 29.222656 29.511719 28.128906 33.75 28.128906 C 37.964844 28.128906 41.0625 29.222656 41.96875 30.464844 L 41.96875 32.34375 C 40.300781 31.175781 37.273438 30.414062 33.75 30.414062 C 30.226562 30.414062 27.175781 31.175781 25.507812 32.34375 Z M 25.507812 29.082031 L 25.507812 27.222656 C 26.4375 25.984375 29.511719 24.867188 33.75 24.867188 C 37.964844 24.867188 41.0625 25.984375 41.96875 27.222656 L 41.96875 29.082031 C 40.300781 27.9375 37.273438 27.175781 33.75 27.175781 C 30.226562 27.175781 27.175781 27.9375 25.507812 29.082031 Z M 25.507812 25.84375 L 25.507812 24.769531 C 25.507812 22.484375 29.128906 20.699219 33.75 20.699219 C 38.347656 20.699219 41.96875 22.484375 41.96875 24.769531 L 41.96875 25.84375 C 40.300781 24.675781 37.273438 23.914062 33.75 23.914062 C 30.226562 23.914062 27.175781 24.675781 25.507812 25.84375 Z M 25.507812 25.84375 " fill-opacity="1" fill-rule="evenodd"/><path fill="#ffffff" d="M 47.230469 46.777344 L 45.398438 46.777344 L 45.398438 27.390625 L 47.0625 26.722656 C 47.207031 26.652344 47.375 26.675781 47.515625 26.769531 C 47.636719 26.84375 47.707031 27.007812 47.707031 27.152344 L 47.707031 46.300781 C 47.707031 46.5625 47.515625 46.777344 47.230469 46.777344 Z M 44.445312 46.777344 L 42.847656 46.777344 C 42.894531 46.636719 42.917969 46.46875 42.917969 46.300781 L 42.917969 28.367188 L 44.445312 27.773438 Z M 44.445312 46.777344 " fill-opacity="1" fill-rule="evenodd"/><path fill="#ffffff" d="M 52.066406 46.777344 L 50.519531 46.777344 L 50.519531 30.175781 L 52.066406 30.175781 C 52.328125 30.175781 52.542969 30.390625 52.542969 30.652344 L 52.542969 46.300781 C 52.542969 46.5625 52.328125 46.777344 52.066406 46.777344 Z M 49.566406 46.777344 L 48.589844 46.777344 C 48.636719 46.636719 48.660156 46.46875 48.660156 46.300781 L 48.660156 30.175781 L 49.566406 30.175781 Z M 49.566406 46.777344 " fill-opacity="1" fill-rule="evenodd"/><path fill="#ffffff" d="M 24.628906 46.777344 L 23.03125 46.777344 L 23.03125 27.773438 L 24.554688 28.367188 L 24.554688 46.300781 C 24.554688 46.46875 24.582031 46.636719 24.628906 46.777344 Z M 22.078125 46.777344 L 20.246094 46.777344 C 19.984375 46.777344 19.769531 46.5625 19.769531 46.300781 L 19.769531 27.152344 C 19.769531 27.007812 19.839844 26.84375 19.984375 26.769531 C 20.101562 26.675781 20.269531 26.652344 20.410156 26.722656 L 22.078125 27.390625 Z M 22.078125 46.777344 " fill-opacity="1" fill-rule="evenodd"/><path fill="#ffffff" d="M 18.886719 46.777344 L 17.910156 46.777344 L 17.910156 30.175781 L 18.816406 30.175781 L 18.816406 46.300781 C 18.816406 46.46875 18.839844 46.636719 18.886719 46.777344 Z M 16.957031 46.777344 L 15.433594 46.777344 C 15.171875 46.777344 14.957031 46.5625 14.957031 46.300781 L 14.957031 30.652344 C 14.957031 30.390625 15.171875 30.175781 15.433594 30.175781 L 16.957031 30.175781 Z M 16.957031 46.777344 " fill-opacity="1" fill-rule="evenodd"/><path fill="#ffffff" d="M 53.589844 46.777344 L 13.886719 46.777344 C 13.625 46.777344 13.410156 46.5625 13.410156 46.300781 C 13.410156 46.039062 13.625 45.824219 13.886719 45.824219 L 53.589844 45.824219 C 53.851562 45.824219 54.066406 46.039062 54.066406 46.300781 C 54.066406 46.5625 53.851562 46.777344 53.589844 46.777344 Z M 53.589844 46.777344 " fill-opacity="1" fill-rule="evenodd"/><path fill="#ffffff" d="M 53.589844 46.777344 L 13.886719 46.777344 C 13.625 46.777344 13.410156 46.5625 13.410156 46.300781 C 13.410156 46.039062 13.625 45.824219 13.886719 45.824219 L 53.589844 45.824219 C 53.851562 45.824219 54.066406 46.039062 54.066406 46.300781 C 54.066406 46.5625 53.851562 46.777344 53.589844 46.777344 Z M 53.589844 46.777344 " fill-opacity="1" fill-rule="evenodd"/></svg>